<svg width="401" height="401" viewBox="0 0 401 401" fill="none" xmlns="http://www.w3.org/2000/svg">
<path fill-rule="evenodd" clip-rule="evenodd" d="M181.518 1.00792C58.733 13.6529 -23.149 129.211 5.85804 248.914C31.75 355.764 142.683 422.066 249.877 394.758C354.526 368.097 419.342 262.42 395.871 156.726C374.15 58.9119 280.42 -9.17808 181.518 1.00792ZM135.635 100.061C161.219 105.483 172.435 131.708 159.812 156.589C157.336 161.47 128.737 200.381 127.612 200.4C126.51 200.419 97.902 161.494 95.411 156.587C79.633 125.5 102.702 93.0829 135.635 100.061ZM123.96 130.522C116.82 133.628 117.52 144.439 124.994 146.502C135.196 149.319 140.882 135.397 131.509 130.55C128.755 129.125 127.184 129.12 123.96 130.522ZM80.773 153.406C84.839 166.101 122.311 216.882 127.612 216.882C132.913 216.882 170.384 166.101 174.451 153.406L175.389 150.476H203.454H231.518V213.757V277.039H194.799C159.483 277.039 158.081 276.983 158.081 275.581C158.081 272.748 152.59 263.155 149.159 259.992C132.157 244.321 103.564 251.819 97.774 273.466L96.819 277.039H84.872H72.924V213.757V150.476H76.379C79.684 150.476 79.875 150.603 80.773 153.406ZM252.105 151.346C258.793 154.394 254.707 161.414 246.245 161.414H243.237V155.945V150.476H246.716C248.629 150.476 251.054 150.868 252.105 151.346ZM261.987 195.046C261.987 228.906 260.811 227.82 297.474 227.82H321.293L324.452 233.229L327.612 238.639V257.872V277.104L321.641 276.876L315.67 276.648L314.7 273.356C306.224 244.579 263.038 244.654 254.973 273.459L253.971 277.039H248.604H243.237V224.695V172.351H252.612H261.987V195.046ZM295.383 184.265C299.264 190.818 305.101 200.662 308.353 206.14L314.267 216.101H293.986H273.706V194.226V172.351H281.016H288.327L295.383 184.265ZM136.032 265.527C142.931 268.722 147.925 277.853 146.723 285.075C143.756 302.89 121.338 307.991 111.629 293.061C100.997 276.711 118.218 257.279 136.032 265.527ZM292.846 265.272C299.828 268.31 304.738 276.818 303.945 284.504C302.22 301.215 281.645 307.881 270.604 295.305C257.046 279.864 273.943 257.048 292.846 265.272ZM124.009 274.639C118.214 277.121 117.328 285.584 122.43 289.716C126.089 292.681 133.104 291.019 135.333 286.66C138.918 279.649 131.27 271.53 124.009 274.639ZM280.284 275.387C272.776 279.965 276.227 291.101 285.154 291.101C290.253 291.101 293.244 288.01 293.219 282.763C293.185 275.37 286.533 271.576 280.284 275.387Z" fill="#FF0A0A"/>
</svg>
